
    <svg xmlns="http://www.w3.org/2000/svg" width="1em" height="1em" viewBox="0 0 256 256">
      <defs>
        <radialGradient id="logoGradient0" cx="50.279%" cy="49.847%" r="50.334%" fx="50.279%" fy="49.847%" gradientTransform="matrix(1 0 0 .99252 0 .004)">
          <stop offset="0%" stopColor="#6366f1"/>
          <stop offset="100%" stopColor="#4f46e5"/>
        </radialGradient>
        <radialGradient id="logoGradient1" cx="50.879%" cy="49.585%" r="91.636%" fx="50.879%" fy="49.585%" gradientTransform="matrix(1 0 0 .41938 0 .288)">
          <stop offset="0%" stopColor="#6366f1"/>
          <stop offset="100%" stopColor="#4f46e5"/>
        </radialGradient>
      </defs>
      <path fill="#6366F1" d="M249.81 103.82c6.297 24.527-20.754 53.25-54.587 45.112c43.093-31.342 23.391-71.489.616-90.748c-24.695-20.888-.788-27.58 7.177-20.018c-.192-15.257-53.91-11.809-6.924 37.184c24.14 25.164-4.337 80.83-38.261 38.5q-.421-.577-.758-1.203c5.478-2.275 9.977-8.463 9.977-18.654a25.4 25.4 0 0 0-2.103-10.494c3.922-7.987 7.521-17.53 7.521-29.48C172.468 25.456 153.938 0 127.99 0c-25.95 0-44.478 25.457-44.478 54.018c0 11.95 3.609 21.504 7.53 29.491a25.3 25.3 0 0 0-2.102 10.515c0 10.19 4.488 16.378 9.977 18.653q-.343.628-.768 1.203c-33.925 42.33-62.41-13.345-38.261-38.5c46.995-48.993-6.743-52.43-6.935-37.184c7.966-7.552 31.883-.86 7.177 20.018c-22.774 19.209-42.456 59.366.617 90.748c-33.824 8.139-60.864-20.584-54.587-45.111c-10.978 20.22-2.84 58.456 40.738 65.837c-46.389 10.646-32.429 74.703.233 64.451c-28.012-1.648-24.898-33.889-13.566-43.594c12.535-10.747 28.385-3.175 57.286-8.018c-.314 26.024 25.029 40.006 11.736 54.908c-14.082 15.772-33.359-1.263-30.387-16.762c-13.444 27.823 24.837 49.964 41.618 17.652c12.929-24.86-21.43-69.76 14.152-69.76s1.213 44.849 14.152 69.76c16.78 32.352 55.062 10.17 41.617-17.652c2.942 15.509-16.305 32.534-30.376 16.762c-13.233-14.942 12.04-28.925 11.766-54.948c28.89 4.843 44.741-2.74 57.266 8.017c11.352 9.706 14.455 41.947-13.556 43.595c32.712 10.292 46.662-53.776.253-64.452c43.548-7.37 51.696-45.617 40.718-65.827"/>
      <path fill="#6366f1" d="M34.1 192.486c12.525-10.747 26.91-1.345 56.78-9.999c0 0 .415-7.987.8-13.911c-9.098 6.854-25.737 5.964-39.626 7.997c-45.712 6.703-35.563 61.61-4.923 57.566c-22.674-3.72-24.372-31.937-13.03-41.653"/>
      <path fill="#6366f1" d="M93.438 153.137c5.055-7.815 5.682-20.412-4.538-8.957c-34.532 38.691-94.446 7.077-82.71-40.35c-12.635 17.157-6.57 62.016 40.738 65.827c11.878-3.943 36.331-.89 46.51-16.52"/>
      <path fill="url(#logoGradient1)" d="M60.757 148.932s12.13-1.244 19.995-10.485c-31.974 11.89-58.206-39.682-18.196-74.541C93.671 36.83 62 26.155 52.923 38.166c3.346-3.306 30.457-1.436 5.752 19.451c-22.735 19.26-46.824 59.245 2.082 91.315"/>
      <path fill="#6366f1" d="M150.987 242.652c-13.313-14.902 0-28.359 2.446-51.844c1.618-15.843-4.296-33.364-25.433-33.364s-27.06 17.551-25.433 33.364c2.416 23.485 15.749 36.942 2.446 51.844c-14.071 15.762-40.384-.667-32.783-22.02c-18.71 31.069 28.78 50.41 45.56 18.107c12.92-24.87-25.373-68.455 10.21-68.455s-2.71 43.585 10.21 68.455c16.78 32.302 64.26 12.962 45.55-18.107c7.591 21.353-18.702 37.772-32.773 22.02"/>
      <path fill="#6366f1" d="M203.946 176.583c-13.899-2.022-30.548-1.153-39.626-8.007c.395 5.924.8 13.921.8 13.921c29.86 8.644 44.245-.768 56.77 9.989c11.341 9.706 9.643 37.933-13.071 41.613c30.68 4.084 40.839-50.823-4.873-57.516"/>
      <path fill="#6366f1" d="M249.81 103.82c11.736 47.417-48.178 79.051-82.72 40.34c-10.22-11.455-9.623 1.152-4.528 8.967c10.179 15.63 34.622 12.577 46.5 16.52c47.318-3.801 53.383-48.67 40.748-65.827"/>
      <path fill="url(#logoGradient1)" d="M175.248 138.447c7.865 9.241 19.985 10.485 19.985 10.485c48.906-32.03 24.817-72.065 2.022-91.315c-24.716-20.887 2.395-22.757 5.741-19.451c-9.098-12.011-40.748-1.335-9.633 25.74c40.08 34.86 13.849 86.43-18.115 74.541"/>
      <path fill="#4f46e5" d="M141.141 35.537c0 7.886-13.141 7.886-13.141 0s13.141-7.876 13.141 0m-20.692 7.219c0 5.429-9.027 5.429-9.027 0s9.027-5.43 9.027 0m5.762-24.972c0 5.439-9.037 5.439-9.037 0c0-5.44 9.037-5.389 9.037 0m-18.823 38.53c0 2.719-4.518 2.719-4.518 0c0-2.72 4.518-2.72 4.518 0m.86-26.691c0 3.76-6.248 3.76-6.248 0c0-3.761 6.248-3.751 6.248 0m17.963 33.07c0 3.77-6.247 3.77-6.247 0s6.247-3.741 6.247 0" opacity="0.3"/>
      <path fill="#6366f1" d="M111.947 93.993c0 14.337-16.254 14.337-16.254 0s16.254-14.336 16.254 0"/>
      <path fill="#6366f1" d="M103.618 90.344a2.507 2.507 0 1 1-4.994 0a2.507 2.507 0 1 1 4.994 0"/>
      <path fill="#6366f1" d="M160.348 93.993c0 14.337-16.255 14.337-16.255 0s16.255-14.336 16.255 0"/>
      <path fill="#6366f1" d="M151.968 90.344a2.507 2.507 0 1 1-4.994 0a2.507 2.507 0 1 1 4.994 0"/>
      <path fill="#6366f1" d="M120.449 122.524c0 8.169-.677 14.781-1.456 14.781s-1.405-6.612-1.395-14.77c.01-8.16.677-14.782 1.466-14.782s1.405 6.602 1.385 14.771"/>
      <ellipse cx="128.263" cy="122.514" fill="#6366f1" rx="1.072" ry="17.359"/>
      <path fill="#6366f1" d="M138.392 122.332c0 7.967-.647 14.427-1.415 14.427c-.769 0-1.345-6.44-1.335-14.417s.667-14.427 1.415-14.427s1.365 6.45 1.335 14.417"/>
    </svg>
 